<svg width="116" height="36" viewBox="0 0 116 36" fill="none" xmlns="http://www.w3.org/2000/svg" className="sc-1humg3d-2 ewGpXA"><path d="M98.015 36C107.948 36 116 27.941 116 18S107.948 0 98.015 0L17.977.015C8.05.015 0 8.071 0 18.008S8.049 36 17.977 36h80.038z" fill="#fff"></path><path d="M98.015 34.221c8.957 0 16.218-7.267 16.218-16.23 0-8.965-7.261-16.232-16.218-16.232l-80.038.022C9.091 1.885 1.942 9.124 1.942 18.018c0 8.894 7.15 16.133 16.035 16.237l80.038-.031" fill="#DC291E"></path><path d="M27.674 20.694l.113 6.311 7.365-.013 1.066-17.953H27.47l.124 8.03h-5.223l.115-8.03h-8.732l1.081 17.966h7.368l.088-6.311h5.382zM44.202 20.753v-3.621l-5.283.022v3.6h5.283zM77.305 20.753l-.035-3.621h-5.28l-.014 3.621h5.33zM65.292 17.07H55.86l.04-3.126h13.165l.338-4.905H47.241l.75 17.94h20.444l.276-3.372H55.736l.049-2.913h9.378l.129-3.624z" fill="#fff"></path><path fill-rule="evenodd" clip-rule="evenodd" d="M80.35 9.035h16.843l-.003-.005c4.784-.017 5.787 3.142 5.774 4.94-.055 2.819-1.322 4.4-3.866 4.954 3.258.34 3.088 2.723 2.783 4.291-.314 1.684-1.413 3.761-5.796 3.761H81.417L80.349 9.035zM91.76 13.62c1.271 0 2.721.52 2.673 1.747-.104 1.483-1.346 1.863-2.916 1.863h-2.566l.073-3.608 2.736-.002zm2.001 8.497c-.152 1.637-1.785 1.624-3.05 1.614l-.277-.001h-1.591l.05-3.319h2.483c1.207 0 2.52.262 2.385 1.713v-.007z" fill="#fff"></path></svg>
